Coordinates
version=1
nRows=32
nColumns=22
inDegrees=yes

Units are S.I. units (second, meters, Newtons, ...)
If the header above contains a line with 'inDegrees', this indicates whether rotational values are in degrees (yes) or radians (no).

endheader
time	pelvis_tilt	pelvis_list	pelvis_rotation	pelvis_tx	pelvis_ty	pelvis_tz	hip_flexion_r	hip_adduction_r	hip_rotation_r	knee_angle_r	ankle_angle_r	subtalar_angle_r	hip_flexion_l	hip_adduction_l	hip_rotation_l	knee_angle_l	ankle_angle_l	subtalar_angle_l	lumbar_extension	lumbar_bending	lumbar_rotation
      2.85000000	     -7.33830504	      3.29173461	    -30.86019943	     -0.20409426	      0.95314011	      0.04808040	      7.36893713	      3.94142216	      3.64830841	    -45.56685686	     14.22410259	     -0.23243731	     36.08416352	     -0.12719100	      7.59650686	    -29.90133656	      8.48730565	      9.73487462	     -0.99488000	      3.04624840	      8.40682615
      2.86000000	     -7.24007765	      3.99881545	    -31.30934415	     -0.19645299	      0.95410226	      0.05114392	      8.97515290	      2.98934144	      3.08206969	    -48.32052509	     12.33616230	     -0.99660937	     35.65053007	      0.35455744	      7.01758387	    -29.70207567	      9.11693040	      9.41557136	     -0.73725494	      2.38009201	      8.11766685
      2.87000000	     -7.06371858	      4.69702270	    -31.77119784	     -0.18901097	      0.95518524	      0.05418535	     10.59631395	      1.98457311	      2.53922049	    -51.09150409	     10.41451427	     -2.04445872	     35.11844168	      0.87167330	      6.44541542	    -29.41782846	      9.66424841	      9.20288038	     -0.57792663	      1.67926022	      7.82690375
      2.88000000	     -6.85903272	      5.38073924	    -32.24549065	     -0.18176222	      0.95628585	      0.05721153	     12.25814678	      0.97155451	      2.05263129	    -53.82916452	      8.52061631	     -3.29233445	     34.55038163	      1.39758972	      5.89732943	    -29.08077308	     10.16552900	      9.01768548	     -0.46530313	      0.98391860	      7.53049382
      2.89000000	     -6.62149814	      6.02998685	    -32.73836557	     -0.17468993	      0.95742405	      0.06026100	     13.92209888	     -0.02505151	      1.63573277	    -56.46950528	      6.74828934	     -4.58390360	     33.93867428	      1.91322686	      5.36372773	    -28.70843450	     10.61763250	      8.85609684	     -0.41032765	      0.30880456	      7.22995816
      2.90000000	     -6.36369054	      6.65150349	    -33.26210875	     -0.16778138	      0.95854802	      0.06335013	     15.58956406	     -0.98968966	      1.31615635	    -58.97302999	      5.26085115	     -5.74312521	     33.29814203	      2.41576351	      4.85497613	    -28.30643871	     11.08956661	      8.71277437	     -0.39154182	     -0.34526210	      6.97245833
      2.91000000	     -6.07940224	      7.21988353	    -33.80598473	     -0.16102284	      0.95971027	      0.06650890	     17.21499492	     -1.88794451	      1.08885193	    -61.28066739	      4.11099724	     -6.73341784	     32.61579832	      2.88287281	      4.33371580	    -27.88396224	     11.53217550	      8.58964081	     -0.42865489	     -0.95942928	      6.70190666
      2.92000000	     -5.78409553	      7.71606507	    -34.35990509	     -0.15441294	      0.96090874	      0.06973029	     18.78648443	     -2.69165414	      0.92280929	    -63.35555514	      3.31249053	     -7.58920852	     31.89961159	      3.29859636	      3.82399985	    -27.45598785	     11.93792408	      8.47922766	     -0.51983632	     -1.50869822	      6.44220892
      2.93000000	     -5.48544648	      8.14836265	    -34.92272114	     -0.14794504	      0.96212382	      0.07303056	     20.30247754	     -3.39370872	      0.81607174	    -65.17733198	      2.91888953	     -8.26959316	     31.15702792	      3.66289141	      3.31451893	    -27.01970834	     12.34842198	      8.38571533	     -0.64786258	     -1.99834834	      6.18633253
      2.94000000	     -5.19684714	      8.51168905	    -35.47998532	     -0.14162131	      0.96335974	      0.07642358	     21.75671410	     -3.97532552	      0.74569624	    -66.72332388	      2.85228644	     -8.83139320	     30.39233502	      3.96802289	      2.81123024	    -26.57212341	     12.74248791	      8.30206444	     -0.80401199	     -2.42012997	      5.90984917
      2.95000000	     -4.92186492	      8.80863333	    -36.01233293	     -0.13542125	      0.96460631	      0.07987335	     23.14347015	     -4.44114646	      0.68808333	    -67.99003084	      3.07658328	     -9.14190187	     29.60916580	      4.22850533	      2.35158869	    -26.11644878	     13.12476124	      8.25885604	     -0.98454102	     -2.77250011	      5.59689348
      2.96000000	     -4.69067842	      9.03716229	    -36.51956498	     -0.12936110	      0.96583868	      0.08344019	     24.46985608	     -4.76495549	      0.61821491	    -68.95816391	      3.45930107	     -9.48951761	     28.83109334	      4.41011767	      1.88631550	    -25.65531530	     13.49501873	      8.18355850	     -1.15848877	     -3.04187220	      5.24306195
      2.97000000	     -4.49698701	      9.20501854	    -36.97999464	     -0.12339198	      0.96705313	      0.08707448	     25.72589563	     -4.97928070	      0.49962377	    -69.63278394	      3.92940537	     -9.78544881	     28.05220220	      4.53638773	      1.44167153	    -25.18461079	     13.84301382	      8.08471031	     -1.32857941	     -3.23645624	      4.84324630
      2.98000000	     -4.33784379	      9.31958599	    -37.38826282	     -0.11750165	      0.96822573	      0.09075624	     26.91001976	     -5.09748394	      0.32937697	    -70.02847482	      4.45003460	     -9.97864988	     27.28147177	      4.62021480	      1.03479799	    -24.72351959	     14.18561635	      7.96962059	     -1.49615443	     -3.36285732	      4.39064258
      2.99000000	     -4.21393996	      9.39162653	    -37.74061940	     -0.11167156	      0.96933543	      0.09447468	     28.02573103	     -5.13996310	      0.09891345	    -70.15515976	      4.99898666	    -10.05546754	     26.52557220	      4.66956401	      0.66520982	    -24.27429905	     14.53283996	      7.85413142	     -1.65386629	     -3.42952053	      3.88269625
      3.00000000	     -4.12163718	      9.43434030	    -38.04510732	     -0.10591862	      0.97035505	      0.09822858	     29.08498753	     -5.11726818	     -0.17213064	    -70.03560887	      5.54860044	    -10.04537454	     25.79397559	      4.69208608	      0.33111352	    -23.84657382	     14.88294429	      7.75882001	     -1.80123199	     -3.45260481	      3.31664516
      3.01000000	     -3.97364019	      9.47547537	    -38.34964208	     -0.10012772	      0.97139852	      0.10207258	     30.03451367	     -5.12611631	     -0.45094801	    -69.68314894	      6.16952557	     -9.75736359	     24.98069009	      4.75599893	     -0.00445844	    -23.35478870	     15.12493988	      7.52819415	     -1.98067676	     -3.51098949	      2.76911500
      3.02000000	     -3.87027237	      9.47716366	    -38.59928490	     -0.09435827	      0.97232717	      0.10594918	     30.92346145	     -5.09458460	     -0.81933654	    -69.10150509	      6.80940189	     -9.36144322	     24.20418062	      4.77602255	     -0.30702150	    -22.90971404	     15.43787474	      7.36953325	     -2.14224998	     -3.50553273	      2.19028740
      3.03000000	     -3.75170598	      9.48538587	    -38.85722929	     -0.08860533	      0.97316917	      0.10988117	     31.75855034	     -5.09227415	     -1.21074058	    -68.32615421	      7.46463844	     -8.84231482	     23.42083025	      4.81014507	     -0.63069663	    -22.46549407	     15.77222860	      7.22436810	     -2.30627647	     -3.51097861	      1.62662491
      3.04000000	     -3.62010413	      9.49589329	    -39.11287822	     -0.08284522	      0.97394516	      0.11385836	     32.52754085	     -5.13532692	     -1.65692519	    -67.35715614	      8.18643618	     -8.31769768	     22.62489215	      4.86138657	     -0.94434498	    -22.01552323	     16.04792232	      7.09789371	     -2.47029413	     -3.52254864	      1.08487865
      3.05000000	     -3.48347053	      9.51085751	    -39.38964529	     -0.07711489	      0.97461416	      0.11788659	     33.25633766	     -5.21951759	     -2.15318254	    -66.22520565	      8.92416475	     -7.72974465	     21.83307393	      4.91666106	     -1.28289077	    -21.57393324	     16.34785630	      6.94922390	     -2.63182383	     -3.53555162	      0.58515749
      3.06000000	     -3.34817675	      9.53683435	    -39.68109501	     -0.07140622	      0.97516363	      0.12195832	     33.95167621	     -5.35236523	     -2.70982764	    -64.94050692	      9.66202064	     -7.17427433	     21.05800470	      4.98231389	     -1.62807085	    -21.14669858	     16.65308736	      6.78300338	     -2.77798517	     -3.55051733	      0.12738578
      3.07000000	     -3.21635167	      9.57025389	    -39.99173809	     -0.06573823	      0.97559914	      0.12608994	     34.61251791	     -5.52444819	     -3.32487074	    -63.51474904	     10.37566456	     -6.72008876	     20.29869943	      5.05339452	     -1.97785308	    -20.73281933	     16.95777439	      6.59943813	     -2.91173787	     -3.56557606	     -0.28804817
      3.08000000	     -3.08547309	      9.60911401	    -40.33176013	     -0.06010435	      0.97592565	      0.13031749	     35.23602012	     -5.72938774	     -3.99318806	    -61.96386670	     11.03384125	     -6.39617069	     19.54970278	      5.12698370	     -2.33832223	    -20.33079519	     17.26363828	      6.39921968	     -3.03215257	     -3.58050137	     -0.65161442
      3.09000000	     -2.94810884	      9.64891581	    -40.70966168	     -0.05449508	      0.97615659	      0.13466541	     35.81432001	     -5.96062126	     -4.70748945	    -60.30384690	     11.62804825	     -6.19815570	     18.80100480	      5.20409442	     -2.71373670	    -19.94235358	     17.57565000	      6.18236351	     -3.14594506	     -3.59518090	     -0.95305518
      3.10000000	     -2.79924047	      9.68405731	    -41.13061095	     -0.04894171	      0.97631718	      0.13918846	     36.33636193	     -6.19241957	     -5.43980156	    -58.53933614	     12.14044648	     -6.10082606	     18.03800719	      5.28006462	     -3.10634177	    -19.55563441	     17.89710377	      5.93951468	     -3.26336647	     -3.61966786	     -1.20473961
      3.11000000	     -2.63915030	      9.71240337	    -41.59665300	     -0.04342130	      0.97639524	      0.14387839	     36.80563923	     -6.42440323	     -6.19687064	    -56.69334463	     12.57057814	     -6.08959992	     17.26575833	      5.35545782	     -3.52021301	    -19.18450249	     18.22742708	      5.68302709	     -3.38045749	     -3.64475150	     -1.39113497
      3.12000000	     -2.47178445	      9.73459919	    -42.10390085	     -0.03795940	      0.97638051	      0.14874881	     37.22693339	     -6.64199290	     -6.96855743	    -54.77853916	     12.92906938	     -6.13197187	     16.49187106	      5.42782545	     -3.96034695	    -18.83429306	     18.57319890	      5.41860715	     -3.49576801	     -3.67503710	     -1.50975573
      3.13000000	     -2.29093956	      9.74848984	    -42.65745180	     -0.03257405	      0.97629465	      0.15382598	     37.59415977	     -6.82332663	     -7.71942411	    -52.79909501	     13.18614573	     -6.20793988	     15.69859912	      5.50168912	     -4.41256895	    -18.48477896	     18.91900264	      5.12607667	     -3.61535434	     -3.71535049	     -1.59304343
      3.14000000	     -2.11294775	      9.75741001	    -43.24470114	     -0.02729241	      0.97608677	      0.15908641	     37.92829969	     -6.96763970	     -8.47466854	    -50.77631987	     13.37212098	     -6.29272762	     14.92891126	      5.56498165	     -4.90420808	    -18.18469597	     19.27974262	      4.82842754	     -3.72730705	     -3.76183759	     -1.60720891
      3.15000000	     -1.94161671	      9.76925685	    -43.86480676	     -0.02211720	      0.97575417	      0.16451943	     38.23773524	     -7.06007425	     -9.20335073	    -48.71077461	     13.47720609	     -6.38322645	     14.18018273	      5.62633929	     -5.41229998	    -17.91131589	     19.65382643	      4.51449513	     -3.82187871	     -3.81218193	     -1.58848448
      3.16000000	     -1.76168519	      9.78231335	    -44.50360668	     -0.01702249	      0.97532553	      0.17009645	     38.51115072	     -7.12134556	     -9.92235570	    -46.61513549	     13.49498551	     -6.49819969	     13.42538866	      5.70709237	     -5.87754170	    -17.63676665	     20.01862395	      4.14488234	     -3.91563137	     -3.87652114	     -1.53820836
